# This file uses centimeters as units for non-parametric coordinates.

mtllib coin.mtl
g default
v -4.000000 -5.000000 -2.000000
v 4.000000 -5.000000 -2.000000
v -4.000000 -5.000000 0.148577
v 4.000000 -5.000000 0.148577
v -4.000000 5.000000 0.148577
v 4.000000 5.000000 0.148577
v -4.000000 5.000000 -2.000000
v 4.000000 5.000000 -2.000000
v -3.000000 5.000000 0.148577
v -3.000000 5.000000 -2.000000
v -3.000000 -5.000000 -2.000000
v -3.000000 -5.000000 0.148577
v 3.000000 5.000000 0.148577
v 3.000000 5.000000 -2.000000
v 3.000000 -5.000000 -2.000000
v 3.000000 -5.000000 0.148577
v -3.000000 6.000000 0.148577
v 3.000000 6.000000 0.148577
v 3.000000 6.000000 -2.000000
v -3.000000 6.000000 -2.000000
v -3.000000 -6.000000 -2.000000
v -3.000000 -6.000000 0.148577
v 3.000000 -6.000000 -2.000000
v 3.000000 -6.000000 0.148577
v -2.000000 -4.000000 0.148577
v -2.000000 4.000000 0.148577
v 2.000000 -4.000000 0.148577
v 2.000000 4.000000 0.148577
v -2.000000 -4.000000 2.000000
v -2.000000 4.000000 2.000000
v 2.000000 -4.000000 2.000000
v 2.000000 4.000000 2.000000
vt 0.260197 0.668019
vt 0.315381 0.668019
vt 0.315381 0.786587
vt 0.260197 0.786587
vt 0.001992 0.056999
vt 0.057176 0.056999
vt 0.057176 0.608843
vt 0.001992 0.608843
vt 0.112361 0.112183
vt 0.112361 0.553659
vt 0.388283 0.056999
vt 0.333099 0.112183
vt 0.388283 0.608843
vt 0.333099 0.553659
vt 0.057176 0.001815
vt 0.388283 0.001815
vt 0.388283 0.664028
vt 0.057176 0.664028
vt 0.443467 0.056999
vt 0.443467 0.608843
vt 0.076238 0.668019
vt 0.131422 0.668019
vt 0.131422 0.786587
vt 0.076238 0.786587
vt 0.569014 0.001815
vt 0.569014 0.553659
vt 0.450446 0.553659
vt 0.450446 0.001815
vt 0.575179 0.553659
vt 0.575179 0.001815
vt 0.693747 0.001815
vt 0.693747 0.553659
vt 0.662830 0.888757
vt 0.662830 0.557650
vt 0.781398 0.557650
vt 0.781398 0.888757
vt 0.656695 0.888757
vt 0.538127 0.888757
vt 0.538127 0.557650
vt 0.656695 0.557650
vt 0.699912 0.443290
vt 0.699912 0.001815
vt 0.920650 0.001815
vt 0.920650 0.443290
vt 0.014918 0.668019
vt 0.070102 0.668019
vt 0.070102 0.786587
vt 0.014918 0.786587
vt 0.198877 0.786587
vt 0.198877 0.668019
vt 0.254062 0.668019
vt 0.254062 0.786587
vt 0.001992 0.909147
vt 0.001992 0.790579
vt 0.057176 0.790579
vt 0.057176 0.909147
vt 0.064553 0.909147
vt 0.064553 0.790579
vt 0.119738 0.790579
vt 0.119738 0.909147
vt 0.192742 0.668019
vt 0.192742 0.786587
vt 0.137557 0.786587
vt 0.137557 0.668019
vt 0.182104 0.790579
vt 0.182104 0.909146
vt 0.126920 0.909146
vt 0.126920 0.790579
vt 0.895838 0.888757
vt 0.895838 0.447282
vt 0.998008 0.447282
vt 0.998008 0.888757
vt 0.321517 0.888757
vt 0.321517 0.668019
vt 0.423686 0.668019
vt 0.423686 0.888757
vt 0.889703 0.447282
vt 0.889703 0.888757
vt 0.787533 0.888757
vt 0.787533 0.447282
vt 0.531991 0.668019
vt 0.531991 0.888757
vt 0.429822 0.888757
vt 0.429822 0.668019
vn 0.000000 -1.000000 0.000000
vn 0.000000 -1.000000 0.000000
vn 0.000000 -1.000000 0.000000
vn 0.000000 -1.000000 0.000000
vn 0.000000 0.000000 1.000000
vn 0.000000 0.000000 1.000000
vn 0.000000 0.000000 1.000000
vn 0.000000 0.000000 1.000000
vn 0.000000 1.000000 0.000000
vn 0.000000 1.000000 0.000000
vn 0.000000 1.000000 0.000000
vn 0.000000 1.000000 0.000000
vn 1.000000 0.000000 0.000000
vn 1.000000 0.000000 0.000000
vn 1.000000 0.000000 0.000000
vn 1.000000 0.000000 0.000000
vn -1.000000 0.000000 0.000000
vn -1.000000 0.000000 0.000000
vn -1.000000 0.000000 0.000000
vn -1.000000 0.000000 0.000000
vn 0.000000 1.000000 0.000000
vn 0.000000 1.000000 0.000000
vn 0.000000 1.000000 0.000000
vn 0.000000 1.000000 0.000000
vn 0.000000 -1.000000 0.000000
vn 0.000000 -1.000000 0.000000
vn 0.000000 -1.000000 0.000000
vn 0.000000 -1.000000 0.000000
vn 0.000000 0.000000 1.000000
vn 0.000000 0.000000 1.000000
vn 0.000000 0.000000 1.000000
vn 0.000000 0.000000 1.000000
vn 0.000000 1.000000 0.000000
vn 0.000000 1.000000 0.000000
vn 0.000000 1.000000 0.000000
vn 0.000000 1.000000 0.000000
vn 0.000000 -1.000000 0.000000
vn 0.000000 -1.000000 0.000000
vn 0.000000 -1.000000 0.000000
vn 0.000000 -1.000000 0.000000
vn 0.000000 0.000000 1.000000
vn 0.000000 0.000000 1.000000
vn 0.000000 0.000000 1.000000
vn 0.000000 0.000000 1.000000
vn 0.000000 0.000000 1.000000
vn 0.000000 0.000000 1.000000
vn 0.000000 0.000000 1.000000
vn 0.000000 0.000000 1.000000
vn 1.000000 0.000000 0.000000
vn 1.000000 0.000000 0.000000
vn 1.000000 0.000000 0.000000
vn 1.000000 0.000000 0.000000
vn -1.000000 0.000000 0.000000
vn -1.000000 0.000000 0.000000
vn -1.000000 0.000000 0.000000
vn -1.000000 0.000000 0.000000
vn -1.000000 0.000000 0.000000
vn -1.000000 0.000000 0.000000
vn -1.000000 0.000000 0.000000
vn -1.000000 0.000000 0.000000
vn 1.000000 0.000000 0.000000
vn 1.000000 0.000000 0.000000
vn 1.000000 0.000000 0.000000
vn 1.000000 0.000000 0.000000
vn 0.000000 0.000000 1.000000
vn 0.000000 0.000000 1.000000
vn 0.000000 0.000000 1.000000
vn 0.000000 0.000000 1.000000
vn 0.000000 0.000000 1.000000
vn 0.000000 0.000000 1.000000
vn 0.000000 0.000000 1.000000
vn 0.000000 0.000000 1.000000
vn 0.000000 0.000000 1.000000
vn 0.000000 0.000000 1.000000
vn 0.000000 0.000000 1.000000
vn 0.000000 0.000000 1.000000
vn 0.000000 0.000000 1.000000
vn 0.000000 0.000000 1.000000
vn 0.000000 0.000000 1.000000
vn 0.000000 0.000000 1.000000
vn 0.000000 0.000000 1.000000
vn 0.000000 0.000000 1.000000
vn 0.000000 0.000000 1.000000
vn 0.000000 0.000000 1.000000
vn -1.000000 0.000000 0.000000
vn -1.000000 0.000000 0.000000
vn -1.000000 0.000000 0.000000
vn -1.000000 0.000000 0.000000
vn 0.000000 -1.000000 0.000000
vn 0.000000 -1.000000 0.000000
vn 0.000000 -1.000000 0.000000
vn 0.000000 -1.000000 0.000000
vn 1.000000 0.000000 0.000000
vn 1.000000 0.000000 0.000000
vn 1.000000 0.000000 0.000000
vn 1.000000 0.000000 0.000000
vn 0.000000 1.000000 0.000000
vn 0.000000 1.000000 0.000000
vn 0.000000 1.000000 0.000000
vn 0.000000 1.000000 0.000000
s off
g pCube1
usemtl initialShadingGroup
f 1/1/1 11/2/2 12/3/3 3/4/4
f 3/5/5 12/6/6 9/7/7 5/8/8
f 5/21/9 9/22/10 10/23/11 7/24/12
f 2/25/13 8/26/14 6/27/15 4/28/16
f 7/29/17 1/30/18 3/31/19 5/32/20
f 17/33/21 18/34/22 19/35/23 20/36/24
f 22/37/25 21/38/26 23/39/27 24/40/28
f 30/41/29 29/42/30 31/43/31 32/44/32
f 13/45/33 6/46/34 8/47/35 14/48/36
f 16/49/37 15/50/38 2/51/39 4/52/40
f 13/13/41 16/11/42 4/19/43 6/20/44
f 9/7/45 13/13/46 18/17/47 17/18/48
f 13/53/49 14/54/50 19/55/51 18/56/52
f 10/57/53 9/58/54 17/59/55 20/60/56
f 12/61/57 11/62/58 21/63/59 22/64/60
f 15/65/61 16/66/62 24/67/63 23/68/64
f 16/11/65 12/6/66 22/15/67 24/16/68
f 9/7/69 12/6/70 25/9/71 26/10/72
f 12/6/73 16/11/74 27/12/75 25/9/76
f 16/11/77 13/13/78 28/14/79 27/12/80
f 13/13/81 9/7/82 26/10/83 28/14/84
f 26/69/85 25/70/86 29/71/87 30/72/88
f 25/73/89 27/74/90 31/75/91 29/76/92
f 27/77/93 28/78/94 32/79/95 31/80/96
f 28/81/97 26/82/98 30/83/99 32/84/100
