# This file uses centimeters as units for non-parametric coordinates.

mtllib Bacground.mtl
g default
v 701.269348 352.694519 0.000000
v 701.269348 -352.694519 0.000000
v -701.269165 -352.694519 0.000000
v -701.269348 352.694519 0.000000
vt 0.994709 0.997420
vt 0.003286 0.997427
vt 0.003283 0.501716
vt 0.994706 0.501709
vn 0.000000 0.000000 1.000000
vn 0.000000 0.000000 1.000000
vn 0.000000 0.000000 1.000000
vn 0.000000 0.000000 1.000000
s off
g Bacground1
usemtl initialShadingGroup
f 1/1/1 4/2/2 3/3/3 2/4/4
